HIERARCHY
ROOT Hips
{
    OFFSET 0.000000 0.000000 0.000000
    CHANNELS 6 Xposition Yposition Zposition Zrotation Xrotation Yrotation
    JOINT Spine
    {
        OFFSET 0.000003 8.467234 0.000016
        CHANNELS 3 Zrotation Xrotation Yrotation
        JOINT Spine1
        {
            OFFSET 0.000002 24.159163 0.000009
            CHANNELS 3 Zrotation Xrotation Yrotation
            JOINT Neck
            {
                OFFSET -0.000003 26.323065 -0.000017
                CHANNELS 3 Zrotation Xrotation Yrotation
                JOINT Head
                {
                    OFFSET -0.000001 16.024313 2.035161
                    CHANNELS 3 Zrotation Xrotation Yrotation
                    End Site
                    {
                        OFFSET 0.000000 20.351660 0.000000
                    }
                }
            }
            JOINT LeftShoulder
            {
                OFFSET 4.036570 20.304853 -0.371907
                CHANNELS 3 Zrotation Xrotation Yrotation
                JOINT LeftArm
                {
                    OFFSET 12.502551 -0.000005 0.000000
                    CHANNELS 3 Zrotation Xrotation Yrotation
                    JOINT LeftForeArm
                    {
                        OFFSET 31.806908 0.000003 0.000007
                        CHANNELS 3 Zrotation Xrotation Yrotation
                        JOINT LeftHand
                        {
                            OFFSET 24.843222 0.000000 0.000003
                            CHANNELS 3 Zrotation Xrotation Yrotation
                            JOINT LeftHandThumb1
                            {
                                OFFSET 2.126759 -2.416759 3.383464
                                CHANNELS 3 Zrotation Xrotation Yrotation
                                JOINT LeftHandThumb2
                                {
                                    OFFSET 3.212138 -0.000008 -0.000002
                                    CHANNELS 3 Zrotation Xrotation Yrotation
                                    JOINT LeftHandThumb3
                                    {
                                        OFFSET 2.745443 -0.000001 -0.000001
                                        CHANNELS 3 Zrotation Xrotation Yrotation
                                        End Site
                                        {
                                            OFFSET 2.793713 0.000000 0.000000
                                        }
                                    }
                                }
                            }
                            JOINT LeftHandIndex1
                            {
                                OFFSET 8.700325 -0.000002 3.383456
                                CHANNELS 3 Zrotation Xrotation Yrotation
                                JOINT LeftHandIndex2
                                {
                                    OFFSET 4.833524 0.000003 0.000005
                                    CHANNELS 3 Zrotation Xrotation Yrotation
                                    JOINT LeftHandIndex3
                                    {
                                        OFFSET 2.416751 -0.000003 -0.000004
                                        CHANNELS 3 Zrotation Xrotation Yrotation
                                        End Site
                                        {
                                            OFFSET 2.459254 0.000000 0.000000
                                        }
                                    }
                                }
                            }
                            JOINT LeftHandMiddle1
                            {
                                OFFSET 8.700338 0.000000 1.121374
                                CHANNELS 3 Zrotation Xrotation Yrotation
                                JOINT LeftHandMiddle2
                                {
                                    OFFSET 5.316879 0.000001 0.000002
                                    CHANNELS 3 Zrotation Xrotation Yrotation
                                    JOINT LeftHandMiddle3
                                    {
                                        OFFSET 2.900104 0.000001 0.000003
                                        CHANNELS 3 Zrotation Xrotation Yrotation
                                        End Site
                                        {
                                            OFFSET 2.951103 0.000000 0.000000
                                        }
                                    }
                                }
                            }
                            JOINT LeftHandRing1
                            {
                                OFFSET 8.216987 0.000000 -1.121377
                                CHANNELS 3 Zrotation Xrotation Yrotation
                                JOINT LeftHandRing2
                                {
                                    OFFSET 4.833524 0.000001 0.000004
                                    CHANNELS 3 Zrotation Xrotation Yrotation
                                    JOINT LeftHandRing3
                                    {
                                        OFFSET 2.416751 -0.000001 -0.000005
                                        CHANNELS 3 Zrotation Xrotation Yrotation
                                        End Site
                                        {
                                            OFFSET 2.459254 0.000000 0.000000
                                        }
                                    }
                                }
                            }
                            JOINT LeftHandPinky1
                            {
                                OFFSET 7.733622 0.000000 -3.383459
                                CHANNELS 3 Zrotation Xrotation Yrotation
                                JOINT LeftHandPinky2
                                {
                                    OFFSET 3.866815 0.000001 -0.000001
                                    CHANNELS 3 Zrotation Xrotation Yrotation
                                    JOINT LeftHandPinky3
                                    {
                                        OFFSET 1.933396 -0.000001 -0.000003
                                        CHANNELS 3 Zrotation Xrotation Yrotation
                                        End Site
                                        {
                                            OFFSET 1.967405 0.000000 0.000000
                                        }
                                    }
                                }
                            }
                        }
                    }
                }
            }
            JOINT RightShoulder
            {
                OFFSET -4.036568 20.304852 -0.371901
                CHANNELS 3 Zrotation Xrotation Yrotation
                JOINT RightArm
                {
                    OFFSET -12.502554 0.000003 -0.000011
                    CHANNELS 3 Zrotation Xrotation Yrotation
                    JOINT RightForeArm
                    {
                        OFFSET -31.806915 -0.000006 -0.000004
                        CHANNELS 3 Zrotation Xrotation Yrotation
                        JOINT RightHand
                        {
                            OFFSET -24.843237 0.000007 0.000003
                            CHANNELS 3 Zrotation Xrotation Yrotation
                            JOINT RightHandThumb1
                            {
                                OFFSET -2.126748 -2.416756 3.383465
                                CHANNELS 3 Zrotation Xrotation Yrotation
                                JOINT RightHandThumb2
                                {
                                    OFFSET -3.212134 0.000005 -0.000002
                                    CHANNELS 3 Zrotation Xrotation Yrotation
                                    JOINT RightHandThumb3
                                    {
                                        OFFSET -2.745437 0.000004 -0.000002
                                        CHANNELS 3 Zrotation Xrotation Yrotation
                                        End Site
                                        {
                                            OFFSET -2.793713 0.000000 0.000000
                                        }
                                    }
                                }
                            }
                            JOINT RightHandIndex1
                            {
                                OFFSET -8.700332 0.000004 3.383467
                                CHANNELS 3 Zrotation Xrotation Yrotation
                                JOINT RightHandIndex2
                                {
                                    OFFSET -4.833527 -0.000001 0.000001
                                    CHANNELS 3 Zrotation Xrotation Yrotation
                                    JOINT RightHandIndex3
                                    {
                                        OFFSET -2.416753 -0.000005 -0.000004
                                        CHANNELS 3 Zrotation Xrotation Yrotation
                                        End Site
                                        {
                                            OFFSET -2.459254 0.000000 0.000000
                                        }
                                    }
                                }
                            }
                            JOINT RightHandMiddle1
                            {
                                OFFSET -8.700326 -0.000007 1.121368
                                CHANNELS 3 Zrotation Xrotation Yrotation
                                JOINT RightHandMiddle2
                                {
                                    OFFSET -5.316862 -0.000001 -0.000003
                                    CHANNELS 3 Zrotation Xrotation Yrotation
                                    JOINT RightHandMiddle3
                                    {
                                        OFFSET -2.900109 0.000004 0.000001
                                        CHANNELS 3 Zrotation Xrotation Yrotation
                                        End Site
                                        {
                                            OFFSET -2.951103 0.000000 0.000000
                                        }
                                    }
                                }
                            }
                            JOINT RightHandRing1
                            {
                                OFFSET -8.216981 -0.000001 -1.121373
                                CHANNELS 3 Zrotation Xrotation Yrotation
                                JOINT RightHandRing2
                                {
                                    OFFSET -4.833527 -0.000001 0.000002
                                    CHANNELS 3 Zrotation Xrotation Yrotation
                                    JOINT RightHandRing3
                                    {
                                        OFFSET -2.416753 -0.000005 -0.000004
                                        CHANNELS 3 Zrotation Xrotation Yrotation
                                        End Site
                                        {
                                            OFFSET -2.459254 0.000000 0.000000
                                        }
                                    }
                                }
                            }
                            JOINT RightHandPinky1
                            {
                                OFFSET -7.733634 -0.000003 -3.383462
                                CHANNELS 3 Zrotation Xrotation Yrotation
                                JOINT RightHandPinky2
                                {
                                    OFFSET -3.866805 0.000002 -0.000002
                                    CHANNELS 3 Zrotation Xrotation Yrotation
                                    JOINT RightHandPinky3
                                    {
                                        OFFSET -1.933412 0.000003 0.000006
                                        CHANNELS 3 Zrotation Xrotation Yrotation
                                        End Site
                                        {
                                            OFFSET -1.967405 0.000000 0.000000
                                        }
                                    }
                                }
                            }
                        }
                    }
                }
            }
        }
    }
    JOINT LeftUpLeg
    {
        OFFSET 10.175829 0.000001 0.000011
        CHANNELS 3 Zrotation Xrotation Yrotation
        JOINT LeftLeg
        {
            OFFSET -0.000002 -42.882950 -0.000005
            CHANNELS 3 Zrotation Xrotation Yrotation
            JOINT LeftFoot
            {
                OFFSET 0.000000 -39.006771 -0.000007
                CHANNELS 3 Zrotation Xrotation Yrotation
                JOINT LeftToeBase
                {
                    OFFSET -0.000001 -6.614285 15.263753
                    CHANNELS 3 Zrotation Xrotation Yrotation
                    End Site
                    {
                        OFFSET 0.000000 0.000000 4.070332
                    }
                }
            }
        }
    }
    JOINT RightUpLeg
    {
        OFFSET -10.175829 -0.000001 -0.000011
        CHANNELS 3 Zrotation Xrotation Yrotation
        JOINT RightLeg
        {
            OFFSET 0.000000 -42.882946 0.000009
            CHANNELS 3 Zrotation Xrotation Yrotation
            JOINT RightFoot
            {
                OFFSET -0.000001 -39.006771 -0.000004
                CHANNELS 3 Zrotation Xrotation Yrotation
                JOINT RightToeBase
                {
                    OFFSET -0.000001 -6.614286 15.263737
                    CHANNELS 3 Zrotation Xrotation Yrotation
                    End Site
                    {
                        OFFSET 0.000000 0.000000 4.070332
                    }
                }
            }
        }
    }
}
MOTION
Frames:    4
Frame Time:    0.002778
-7.272020    89.931084    230.670853    3.246848    -0.648001    -4.859729    0.263659    5.206037    2.908200    1.318297    5.204723    2.812514    4.847032    -1.971195    4.891171    4.847032    -1.971192    4.891172    -5.270060    -0.142156    2.120285    -60.611412    6.484843    -4.225340    -28.736835    14.576819    -114.355087    21.297083    8.676306    21.975229    47.448212    38.866440    -34.355034    -34.999992    0.000001    0.000002    -0.000000    0.000000    -0.000000    -0.000006    9.999999    -0.000005    -0.000000    0.000000    -0.000000    -0.000000    0.000000    -0.000000    -0.000000    0.000000    -0.000000    -0.000000    0.000000    -0.000000    -0.000000    0.000000    -0.000000    -0.000000    0.000000    -0.000000    -0.000000    0.000000    -0.000000    -0.000000    0.000000    -0.000000    -0.000014    -10.000002    -0.000005    -0.000000    0.000000    -0.000000    -0.000000    0.000000    -0.000000    -4.106688    2.495635    0.544003    48.548817    26.223598    24.702793    -9.534816    -17.939005    73.275436    -8.727460    5.641030    -32.390934    -47.448208    38.866428    34.355030    35.000008    -0.000001    -0.000009    -0.000000    0.000000    -0.000000    0.000007    10.000000    0.000001    -0.000000    0.000000    -0.000000    -0.000000    0.000000    -0.000000    -0.000000    0.000000    -0.000000    -0.000000    0.000000    -0.000000    -0.000000    0.000000    -0.000000    -0.000000    0.000000    -0.000000    -0.000000    0.000000    -0.000000    -0.000000    0.000000    -0.000000    -0.000003    -9.999999    -0.000011    -0.000000    0.000000    -0.000000    -0.000000    0.000000    -0.000000    8.508614    -13.947942    -3.428014    0.000001    41.132019    -0.000001    -16.505205    -28.460241    1.564272    0.000000    0.411699    -0.000000    -18.080423    -14.610275    -4.834088    -0.000000    43.163822    -0.000002    17.367552    -25.481188    -17.525436    -0.000000    -0.829328    0.000004    
-7.305512    89.984772    230.663757    3.249294    -0.616240    -4.965908    0.264000    5.169939    2.881595    1.320004    5.168632    2.786447    4.848286    -1.982949    4.943908    4.848287    -1.982947    4.943909    -5.280375    -0.161095    2.119491    -60.569031    6.450322    -4.240392    -28.726315    14.555984    -114.376839    21.313118    8.689102    21.986374    47.448200    38.866421    -34.355038    -35.000008    -0.000006    0.000009    -0.000000    0.000000    -0.000000    -0.000002    10.000002    0.000000    -0.000000    0.000000    -0.000000    -0.000000    0.000000    -0.000000    -0.000000    0.000000    -0.000000    -0.000000    0.000000    -0.000000    -0.000000    0.000000    -0.000000    -0.000000    0.000000    -0.000000    -0.000000    0.000000    -0.000000    -0.000000    0.000000    -0.000000    -0.000001    -10.000007    -0.000007    -0.000000    0.000000    -0.000000    -0.000000    0.000000    -0.000000    -4.148433    2.472604    0.537774    48.495640    26.236296    24.693878    -9.548824    -17.918951    73.342384    -8.761787    5.658546    -32.366100    -47.448212    38.866428    34.355042    35.000004    -0.000003    -0.000002    -0.000000    0.000000    -0.000000    0.000003    10.000001    0.000003    -0.000000    0.000000    -0.000000    -0.000000    0.000000    -0.000000    -0.000000    0.000000    -0.000000    -0.000000    0.000000    -0.000000    -0.000000    0.000000    -0.000000    -0.000000    0.000000    -0.000000    -0.000000    0.000000    -0.000000    -0.000000    0.000000    -0.000000    0.000000    -10.000001    0.000000    -0.000000    0.000000    -0.000000    -0.000000    0.000000    -0.000000    8.525259    -13.827064    -3.415744    0.000002    40.868656    -0.000002    -16.502426    -28.378332    1.693324    -0.000000    0.419401    0.000000    -18.039476    -14.591830    -4.808785    0.000001    42.962643    -0.000001    17.345825    -25.389429    -17.499964    -0.000000    -0.822432    0.000007    
-7.339838    90.037003    230.655289    3.251043    -0.583771    -5.073884    0.264223    5.136758    2.857965    1.321114    5.135456    2.763348    4.856372    -1.994999    4.999520    4.856377    -1.994996    4.999520    -5.292890    -0.190079    2.117215    -60.518570    6.415696    -4.258603    -28.700178    14.534627    -114.409935    21.315107    8.693058    21.992188    47.448212    38.866432    -34.355034    -35.000008    -0.000007    -0.000006    -0.000000    0.000000    -0.000000    0.000002    9.999996    -0.000005    -0.000000    0.000000    -0.000000    -0.000000    0.000000    -0.000000    -0.000000    0.000000    -0.000000    -0.000000    0.000000    -0.000000    -0.000000    0.000000    -0.000000    -0.000000    0.000000    -0.000000    -0.000000    0.000000    -0.000000    -0.000000    0.000000    -0.000000    0.000003    -10.000001    -0.000003    -0.000000    0.000000    -0.000000    -0.000000    0.000000    -0.000000    -4.191754    2.455291    0.535102    48.451672    26.249128    24.680731    -9.575531    -17.893679    73.378181    -8.779181    5.668880    -32.358856    -47.448204    38.866428    34.355022    34.999996    -0.000002    0.000011    -0.000000    0.000000    -0.000000    -0.000000    10.000001    -0.000008    -0.000000    0.000000    -0.000000    -0.000000    0.000000    -0.000000    -0.000000    0.000000    -0.000000    -0.000000    0.000000    -0.000000    -0.000000    0.000000    -0.000000    -0.000000    0.000000    -0.000000    -0.000000    0.000000    -0.000000    -0.000000    0.000000    -0.000000    -0.000002    -10.000001    0.000001    -0.000000    0.000000    -0.000000    -0.000000    0.000000    -0.000000    8.543169    -13.706471    -3.399741    0.000002    40.605350    -0.000002    -16.501301    -28.298016    1.821754    -0.000000    0.428182    0.000000    -18.003725    -14.573023    -4.797803    -0.000002    42.761158    -0.000001    17.331718    -25.306297    -17.458080    0.000000    -0.813538    -0.000006    
-7.376982    90.107849    230.656647    3.248023    -0.546885    -5.223814    0.264284    5.094473    2.835771    1.321418    5.093176    2.741909    4.860181    -2.001472    5.092271    4.860182    -2.001470    5.092271    -5.359036    -0.175742    2.168175    -60.410938    6.393025    -4.318245    -28.651596    14.508740    -114.450760    21.340761    8.706281    21.993481    47.448204    38.866428    -34.355038    -35.000008    -0.000007    0.000004    -0.000000    0.000000    -0.000000    -0.000003    9.999994    -0.000003    -0.000000    0.000000    -0.000000    -0.000000    0.000000    -0.000000    -0.000000    0.000000    -0.000000    -0.000000    0.000000    -0.000000    -0.000000    0.000000    -0.000000    -0.000000    0.000000    -0.000000    -0.000000    0.000000    -0.000000    -0.000000    0.000000    -0.000000    -0.000005    -10.000001    -0.000000    -0.000000    0.000000    -0.000000    -0.000000    0.000000    -0.000000    -4.186041    2.388693    0.594117    48.400440    26.261299    24.591225    -9.639947    -17.856020    73.412514    -8.835310    5.696826    -32.314522    -47.448212    38.866428    34.355038    35.000008    0.000003    0.000011    -0.000000    0.000000    -0.000000    0.000003    10.000000    0.000002    -0.000000    0.000000    -0.000000    -0.000000    0.000000    -0.000000    -0.000000    0.000000    -0.000000    -0.000000    0.000000    -0.000000    -0.000000    0.000000    -0.000000    -0.000000    0.000000    -0.000000    -0.000000    0.000000    -0.000000    -0.000000    0.000000    -0.000000    0.000001    -10.000001    0.000005    -0.000000    0.000000    -0.000000    -0.000000    0.000000    -0.000000    8.561909    -13.446787    -3.442661    0.000005    40.095848    -0.000004    -16.668736    -28.220364    2.002591    0.000000    0.445915    -0.000000    -17.947121    -14.525658    -4.766336    0.000001    42.459854    0.000001    17.263622    -25.158833    -17.427675    0.000000    -0.826887    -0.000001    
